# 3ds Max Wavefront OBJ Exporter v0.97b - (c)2007 guruware
# File Created: 11.03.2020 20:01:43

mtllib piece_02.mtl

#
# object Piece026
#

v  -2.217400 10.400002 -0.918501
v  -2.400000 10.400002 -0.000002
v  -2.400000 8.800003 -0.000002
v  -2.217400 8.800003 -0.918501
v  -1.697000 10.400002 -1.697002
v  -1.697000 8.800003 -1.697002
v  -0.918500 10.400002 -2.217402
v  -0.918500 8.800003 -2.217402
v  0.000000 10.400002 -2.400002
v  0.000000 8.800003 -2.400002
v  0.918500 10.400002 -2.217402
v  0.918500 8.800003 -2.217402
v  1.697000 10.400002 -1.697002
v  1.697000 8.800003 -1.697002
v  2.217400 10.400002 -0.918501
v  2.217400 8.800003 -0.918501
v  2.400000 10.400002 -0.000002
v  2.400000 8.800003 -0.000002
v  2.217400 10.400002 0.918499
v  2.217400 8.800003 0.918499
v  1.697000 10.400002 1.696999
v  1.697000 8.800003 1.696999
v  0.918500 10.400002 2.217400
v  0.918500 8.800003 2.217400
v  0.000000 10.400002 2.399998
v  0.000000 8.800003 2.399998
v  -0.918500 10.400002 2.217400
v  -0.918500 8.800003 2.217400
v  -1.697000 10.400002 1.696999
v  -1.697000 8.800003 1.696999
v  -2.217400 10.400002 0.918499
v  -2.217400 8.800003 0.918499
v  -3.200000 10.400002 -0.000002
v  -2.956500 10.400002 -1.224602
v  -3.200000 8.800003 -0.000002
v  -2.956500 8.800003 -1.224602
v  -2.262700 10.400002 -2.262701
v  -2.262700 8.800003 -2.262701
v  -1.224600 10.400002 -2.956501
v  -1.224600 8.800003 -2.956501
v  0.000000 10.400002 -3.200001
v  0.000000 8.800003 -3.200001
v  1.224600 10.400002 -2.956501
v  1.224600 8.800003 -2.956501
v  2.262700 10.400002 -2.262701
v  2.262700 8.800003 -2.262701
v  2.956500 10.400002 -1.224602
v  2.956500 8.800003 -1.224602
v  3.200000 10.400002 -0.000002
v  3.200000 8.800003 -0.000002
v  2.956500 10.400002 1.224598
v  2.956500 8.800003 1.224598
v  2.262700 10.400002 2.262699
v  2.262700 8.800003 2.262699
v  1.224600 10.400002 2.956497
v  1.224600 8.800003 2.956497
v  0.000000 10.400002 3.199997
v  0.000000 8.800003 3.199997
v  -1.224600 10.400002 2.956497
v  -1.224600 8.800003 2.956497
v  -2.262700 10.400002 2.262699
v  -2.262700 8.800003 2.262699
v  -2.956500 10.400002 1.224598
v  -2.956500 8.800003 1.224598
v  0.000000 -7.199997 3.199997
v  0.000000 -7.199997 6.399998
v  2.449300 -7.199997 5.912998
v  1.224600 -7.199997 2.956497
v  4.525400 -7.199997 4.525398
v  2.262700 -7.199997 2.262699
v  5.913000 -7.199997 2.449299
v  2.956500 -7.199997 1.224598
v  6.400000 -7.199997 -0.000002
v  3.200000 -7.199997 -0.000002
v  5.913000 -7.199997 -2.449301
v  2.956500 -7.199997 -1.224602
v  4.525400 -7.199997 -4.525402
v  2.262700 -7.199997 -2.262701
v  2.449300 -7.199997 -5.913002
v  1.224600 -7.199997 -2.956501
v  0.000000 -7.199997 -6.400002
v  0.000000 -7.199997 -3.200001
v  -2.449300 -7.199997 -5.913002
v  -1.224600 -7.199997 -2.956501
v  -4.525400 -7.199997 -4.525402
v  -2.262700 -7.199997 -2.262701
v  -5.913000 -7.199997 -2.449301
v  -2.956500 -7.199997 -1.224602
v  -6.400000 -7.199997 -0.000002
v  -3.200000 -7.199997 -0.000002
v  -5.913000 -7.199997 2.449299
v  -2.956500 -7.199997 1.224598
v  -4.525400 -7.199997 4.525398
v  -2.262700 -7.199997 2.262699
v  -2.449300 -7.199997 5.912998
v  -1.224600 -7.199997 2.956497
v  -2.400000 -0.800003 -0.000002
v  -2.217400 -0.800003 -0.918501
v  -1.697000 -0.800003 -1.697002
v  -0.918500 -0.800003 -2.217402
v  0.000000 -0.800003 -2.400002
v  0.918500 -0.800003 -2.217402
v  1.697000 -0.800003 -1.697002
v  2.217400 -0.800003 -0.918501
v  2.400000 -0.800003 -0.000002
v  2.217400 -0.800003 0.918499
v  1.697000 -0.800003 1.696999
v  0.918500 -0.800003 2.217400
v  0.000000 -0.800003 2.399998
v  -0.918500 -0.800003 2.217400
v  -1.697000 -0.800003 1.696999
v  -2.217400 -0.800003 0.918499
v  -2.217400 -8.800003 -0.918501
v  -2.400000 -8.800003 -0.000002
v  -2.400000 -8.800003 -2.400002
v  -1.697000 -8.800003 -1.697002
v  -0.918500 -8.800003 -2.217402
v  0.000000 -8.800003 -2.400002
v  0.918500 -8.800003 -2.217402
v  2.400000 -8.800003 -2.400002
v  1.697000 -8.800003 -1.697002
v  2.217400 -8.800003 -0.918501
v  2.400000 -8.800003 -0.000002
v  2.217400 -8.800003 0.918499
v  2.400000 -8.800003 2.399998
v  1.697000 -8.800003 1.696999
v  0.918500 -8.800003 2.217400
v  0.000000 -8.800003 2.399998
v  -0.918500 -8.800003 2.217400
v  -2.400000 -8.800003 2.399998
v  -1.697000 -8.800003 1.696999
v  -2.217400 -8.800003 0.918499
v  -2.240800 -8.800003 -0.800001
v  -2.240800 -0.800003 -0.800001
v  -0.800000 -8.800003 -0.800001
v  -0.800000 -0.800003 -0.800001
v  -0.800000 -8.800003 -2.240801
v  -0.800000 -0.800003 -2.240801
v  2.240800 -8.800003 -0.800001
v  2.240800 -0.800003 -0.800001
v  0.800000 -8.800003 -0.800001
v  0.800000 -0.800003 -0.800001
v  0.800000 -8.800003 -2.240801
v  0.800000 -0.800003 -2.240801
v  -2.240800 -8.800003 0.799999
v  -2.240800 -0.800003 0.799999
v  -0.800000 -8.800003 0.799999
v  -0.800000 -0.800003 0.799999
v  -0.800000 -8.800003 2.240799
v  -0.800000 -0.800003 2.240799
v  2.240800 -8.800003 0.799999
v  2.240800 -0.800003 0.799999
v  0.800000 -8.800003 0.799999
v  0.800000 -0.800003 0.799999
v  0.800000 -8.800003 2.240799
v  0.800000 -0.800003 2.240799
v  -6.400000 10.400002 -4.544001
v  -7.392000 10.400002 -3.060001
v  -7.392000 10.400002 3.059998
v  -6.400000 10.400002 4.543999
v  -7.841000 10.400002 -0.800001
v  -7.841000 10.400002 0.799999
v  -7.392000 8.800003 -3.060001
v  -7.841000 8.800003 -0.800001
v  -6.400000 8.800003 -4.544001
v  -4.544000 8.800003 -6.400002
v  -4.544000 10.400002 -6.400002
v  -3.060000 10.400002 -7.392002
v  -3.060000 8.800003 -7.392002
v  6.400000 8.800003 -4.544001
v  6.400000 10.400002 -4.544001
v  7.392000 10.400002 -3.060001
v  7.392000 8.800003 -3.060001
v  4.544000 8.800003 -6.400002
v  3.060000 8.800003 -7.392002
v  3.060000 10.400002 -7.392002
v  4.544000 10.400002 -6.400002
v  -7.392000 8.800003 3.059998
v  -7.841000 8.800003 0.799999
v  -6.400000 8.800003 4.543999
v  -4.544000 8.800003 6.399998
v  -3.060000 8.800003 7.391998
v  -3.060000 10.400002 7.391998
v  -4.544000 10.400002 6.399998
v  6.400000 8.800003 4.543999
v  7.392000 8.800003 3.059998
v  7.392000 10.400002 3.059998
v  6.400000 10.400002 4.543999
v  4.544000 8.800003 6.399998
v  4.544000 10.400002 6.399998
v  3.060000 10.400002 7.391998
v  3.060000 8.800003 7.391998
v  -6.400000 8.800003 -0.000002
v  -5.913000 8.800003 -2.449301
v  -4.525400 8.800003 -4.525402
v  -2.449300 8.800003 -5.913002
v  0.000000 8.800003 -6.400002
v  2.449300 8.800003 -5.913002
v  4.525400 8.800003 -4.525402
v  5.913000 8.800003 -2.449301
v  6.400000 8.800003 -0.000002
v  5.913000 8.800003 2.449299
v  4.525400 8.800003 4.525398
v  2.449300 8.800003 5.912998
v  0.000000 8.800003 6.399998
v  -2.449300 8.800003 5.912998
v  -4.525400 8.800003 4.525398
v  -5.913000 8.800003 2.449299
v  -7.391200 -8.400002 -3.061602
v  -8.000000 -8.400002 -0.000002
v  -8.000000 8.800003 -0.000002
v  -5.656800 -8.400002 -5.656801
v  -5.656000 8.800003 -5.656002
v  -3.061600 -8.400002 -7.391201
v  0.000000 -8.400002 -8.000002
v  0.000000 8.800003 -8.000002
v  3.061600 -8.400002 -7.391201
v  5.656800 -8.400002 -5.656801
v  5.656000 8.800003 -5.656002
v  7.391200 -8.400002 -3.061602
v  8.000000 -8.400002 -0.000002
v  8.000000 8.800003 -0.000002
v  7.391200 -8.400002 3.061600
v  5.656800 -8.400002 5.656799
v  5.656000 8.800003 5.655998
v  3.061600 -8.400002 7.391197
v  0.000000 -8.400002 8.000000
v  0.000000 8.800003 8.000000
v  -3.061600 -8.400002 7.391197
v  -5.656800 -8.400002 5.656799
v  -5.656000 8.800003 5.655998
v  -7.391200 -8.400002 3.061600
v  -5.912000 8.800003 -2.448002
v  -4.524000 8.800003 -4.524002
v  -2.448000 8.800003 -5.912001
v  5.912000 8.800003 -2.448002
v  4.524000 8.800003 -4.524002
v  2.448000 8.800003 -5.912001
v  -5.912000 8.800003 2.447998
v  -4.524000 8.800003 4.523998
v  -2.448000 8.800003 5.911999
v  5.912000 8.800003 2.447998
v  4.524000 8.800003 4.523998
v  2.448000 8.800003 5.911999
v  -16.000000 10.400002 -0.800001
v  -16.000000 10.400002 0.799999
v  -16.000000 7.199997 0.799999
v  -16.000000 7.199997 -0.800001
v  -7.841000 -8.800003 0.799999
v  -7.841000 -8.800003 -0.800001
v  -4.000000 -10.400002 -6.400002
v  -4.000000 -8.800003 -6.400002
v  -3.081500 -8.800003 -6.217402
v  -3.081500 -10.400002 -6.217402
v  -2.303000 -8.800003 -5.697002
v  -2.303000 -10.400002 -5.697002
v  -1.782600 -8.800003 -4.918501
v  -1.782600 -10.400002 -4.918501
v  -1.600000 -8.800003 -4.000002
v  -1.600000 -10.400002 -4.000002
v  -1.782600 -8.800003 -3.081501
v  -1.782600 -10.400002 -3.081501
v  -2.303000 -8.800003 -2.303001
v  -2.303000 -10.400002 -2.303001
v  -3.081500 -8.800003 -1.782602
v  -3.081500 -10.400002 -1.782602
v  -4.000000 -8.800003 -1.600002
v  -4.000000 -10.400002 -1.600002
v  -4.918500 -8.800003 -1.782602
v  -4.918500 -10.400002 -1.782602
v  -5.697000 -8.800003 -2.303001
v  -5.697000 -10.400002 -2.303001
v  -6.217400 -8.800003 -3.081501
v  -6.217400 -10.400002 -3.081501
v  -6.400000 -8.800003 -4.000002
v  -6.400000 -10.400002 -4.000002
v  -4.000000 -10.400002 -4.000002
v  -6.246000 -10.400002 -4.776001
v  -5.656800 -10.400002 -5.656801
v  -4.776000 -10.400002 -6.246002
v  -6.245800 -10.400002 -4.775902
v  -6.245800 -8.800003 -4.775902
v  -5.656800 -8.800003 -5.656801
v  -4.775500 -10.400002 -6.245802
v  -4.775500 -8.800003 -6.245802
v  6.400000 -10.400002 -4.000002
v  6.400000 -8.800003 -4.000002
v  6.217400 -8.800003 -3.081501
v  6.217400 -10.400002 -3.081501
v  5.697000 -8.800003 -2.303001
v  5.697000 -10.400002 -2.303001
v  4.918500 -8.800003 -1.782602
v  4.918500 -10.400002 -1.782602
v  4.000000 -8.800003 -1.600002
v  4.000000 -10.400002 -1.600002
v  3.081500 -8.800003 -1.782602
v  3.081500 -10.400002 -1.782602
v  2.303000 -8.800003 -2.303001
v  2.303000 -10.400002 -2.303001
v  1.782600 -8.800003 -3.081501
v  1.782600 -10.400002 -3.081501
v  1.600000 -8.800003 -4.000002
v  1.600000 -10.400002 -4.000002
v  1.782600 -8.800003 -4.918501
v  1.782600 -10.400002 -4.918501
v  2.303000 -8.800003 -5.697002
v  2.303000 -10.400002 -5.697002
v  3.081500 -8.800003 -6.217402
v  3.081500 -10.400002 -6.217402
v  4.000000 -8.800003 -6.400002
v  4.000000 -10.400002 -6.400002
v  4.000000 -10.400002 -4.000002
v  4.776000 -10.400002 -6.246002
v  5.656800 -10.400002 -5.656801
v  6.246000 -10.400002 -4.776001
v  4.775900 -10.400002 -6.245802
v  4.775900 -8.800003 -6.245802
v  5.656800 -8.800003 -5.656801
v  6.245800 -10.400002 -4.775501
v  6.245800 -8.800003 -4.775501
v  -6.400000 -10.400002 4.000000
v  -6.400000 -8.800003 4.000000
v  -6.217400 -8.800003 3.081497
v  -6.217400 -10.400002 3.081497
v  -5.697000 -8.800003 2.302998
v  -5.697000 -10.400002 2.302998
v  -4.918500 -8.800003 1.782597
v  -4.918500 -10.400002 1.782597
v  -4.000000 -8.800003 1.599998
v  -4.000000 -10.400002 1.599998
v  -3.081500 -8.800003 1.782597
v  -3.081500 -10.400002 1.782597
v  -2.303000 -8.800003 2.302998
v  -2.303000 -10.400002 2.302998
v  -1.782600 -8.800003 3.081497
v  -1.782600 -10.400002 3.081497
v  -1.600000 -8.800003 4.000000
v  -1.600000 -10.400002 4.000000
v  -1.782600 -8.800003 4.918499
v  -1.782600 -10.400002 4.918499
v  -2.303000 -8.800003 5.696999
v  -2.303000 -10.400002 5.696999
v  -3.081500 -8.800003 6.217400
v  -3.081500 -10.400002 6.217400
v  -4.000000 -8.800003 6.399998
v  -4.000000 -10.400002 6.399998
v  -4.000000 -10.400002 4.000000
v  -4.776000 -10.400002 6.245998
v  -5.656800 -10.400002 5.656799
v  -6.246000 -10.400002 4.775997
v  -4.775900 -10.400002 6.245800
v  -4.775900 -8.800003 6.245800
v  -5.656800 -8.800003 5.656799
v  -6.245800 -10.400002 4.775497
v  -6.245800 -8.800003 4.775497
v  4.000000 -10.400002 6.399998
v  4.000000 -8.800003 6.399998
v  3.081500 -8.800003 6.217400
v  3.081500 -10.400002 6.217400
v  2.303000 -8.800003 5.696999
v  2.303000 -10.400002 5.696999
v  1.782600 -8.800003 4.918499
v  1.782600 -10.400002 4.918499
v  1.600000 -8.800003 4.000000
v  1.600000 -10.400002 4.000000
v  1.782600 -8.800003 3.081497
v  1.782600 -10.400002 3.081497
v  2.303000 -8.800003 2.302998
v  2.303000 -10.400002 2.302998
v  3.081500 -8.800003 1.782597
v  3.081500 -10.400002 1.782597
v  4.000000 -8.800003 1.599998
v  4.000000 -10.400002 1.599998
v  4.918500 -8.800003 1.782597
v  4.918500 -10.400002 1.782597
v  5.697000 -8.800003 2.302998
v  5.697000 -10.400002 2.302998
v  6.217400 -8.800003 3.081497
v  6.217400 -10.400002 3.081497
v  6.400000 -8.800003 4.000000
v  6.400000 -10.400002 4.000000
v  4.000000 -10.400002 4.000000
v  6.246000 -10.400002 4.775997
v  5.656800 -10.400002 5.656799
v  4.776000 -10.400002 6.245998
v  6.245800 -10.400002 4.775898
v  6.245800 -8.800003 4.775898
v  5.656800 -8.800003 5.656799
v  4.775500 -10.400002 6.245800
v  4.775500 -8.800003 6.245800
v  0.800000 10.400002 -7.841002
v  -0.800000 10.400002 -7.841002
v  0.800000 8.800003 -7.841002
v  -0.800000 8.800003 -7.841002
v  0.800000 10.400002 -16.000002
v  -0.800000 10.400002 -16.000002
v  -0.800000 7.199997 -16.000002
v  0.800000 7.199997 -16.000002
v  -0.800000 -8.800003 -7.841002
v  0.800000 -8.800003 -7.841002
v  7.841000 10.400002 0.799999
v  7.841000 10.400002 -0.800001
v  7.841000 8.800003 0.799999
v  7.841000 8.800003 -0.800001
v  16.000000 10.400002 0.799999
v  16.000000 10.400002 -0.800001
v  16.000000 7.199997 -0.800001
v  16.000000 7.199997 0.799999
v  7.841000 -8.800003 -0.800001
v  7.841000 -8.800003 0.799999
v  -0.800000 10.400002 7.841000
v  0.800000 10.400002 7.841000
v  -0.800000 8.800003 7.841000
v  0.800000 8.800003 7.841000
v  -0.800000 10.400002 16.000000
v  0.800000 10.400002 16.000000
v  0.800000 7.199997 16.000000
v  -0.800000 7.199997 16.000000
v  0.800000 -8.800003 7.841000
v  -0.800000 -8.800003 7.841000
v  -3.060000 -8.800003 7.391998
v  -3.060000 -8.400002 7.391998
v  -0.800000 -8.400002 7.841000
v  3.060000 -8.400002 7.391998
v  3.060000 -8.800003 7.391998
v  0.800000 -8.400002 7.841000
v  -7.392000 -8.800003 -3.060001
v  -7.392000 -8.400002 -3.060001
v  -7.841000 -8.400002 -0.800001
v  -7.392000 -8.400002 3.059998
v  -7.392000 -8.800003 3.059998
v  -7.841000 -8.400002 0.799999
v  3.060000 -8.800003 -7.392002
v  3.060000 -8.400002 -7.392002
v  0.800000 -8.400002 -7.841002
v  -3.060000 -8.400002 -7.392002
v  -3.060000 -8.800003 -7.392002
v  -0.800000 -8.400002 -7.841002
v  7.392000 -8.800003 3.059998
v  7.392000 -8.400002 3.059998
v  7.841000 -8.400002 0.799999
v  7.392000 -8.400002 -3.060001
v  7.392000 -8.800003 -3.060001
v  7.841000 -8.400002 -0.800001
# 444 vertices

vn 0.923900 0.000000 0.382700
vn 1.000000 0.000000 0.000000
vn 0.707100 0.000000 0.707100
vn 0.382700 0.000000 0.923900
vn 0.000000 0.000000 1.000000
vn -0.382700 0.000000 0.923900
vn -0.707100 0.000000 0.707100
vn -0.923900 0.000000 0.382700
vn -1.000000 0.000000 0.000000
vn -0.923900 0.000000 -0.382700
vn -0.707100 0.000000 -0.707100
vn -0.382700 0.000000 -0.923900
vn 0.000000 0.000000 -1.000000
vn 0.382700 0.000000 -0.923900
vn 0.707100 0.000000 -0.707100
vn 0.923900 0.000000 -0.382700
vn 0.000000 1.000000 0.000000
vn 0.000000 -1.000000 0.000000
vn 0.980800 0.000000 0.195200
vn 0.195200 0.000000 0.980800
vn -0.980800 0.000000 0.195200
vn -0.195200 0.000000 0.980800
vn 0.980800 0.000000 -0.195200
vn 0.195200 0.000000 -0.980800
vn -0.980800 0.000000 -0.195200
vn -0.195200 0.000000 -0.980800
vn -0.980800 0.000000 -0.194900
vn -0.831400 0.000000 -0.555700
vn -0.555700 0.000000 -0.831400
vn 0.831400 0.000000 -0.555700
vn 0.555700 0.000000 -0.831400
vn -0.980800 0.000000 0.194900
vn -0.831400 0.000000 0.555700
vn -0.555700 0.000000 0.831400
vn 0.831400 0.000000 0.555700
vn 0.555700 0.000000 0.831400
vn -0.382800 0.000000 -0.923800
vn 0.923800 0.000000 -0.382800
vn 0.382800 0.000000 0.923800
vn -0.923800 0.000000 0.382800
vn -0.972300 -0.233600 0.000000
vn -0.890900 -0.454300 0.000000
vn -1.000000 0.000000 0.000100
vn -0.707000 0.000000 -0.707200
vn -0.000100 0.000000 -1.000000
vn 0.707200 0.000000 -0.707000
vn 0.000100 0.000000 1.000000
vn -0.707200 0.000000 0.707000
vn 1.000000 0.000000 -0.000100
vn 0.707000 0.000000 0.707200
vn 0.194900 0.000000 -0.980800
vn -0.194900 0.000000 -0.980800
vn 0.000000 -0.233600 -0.972300
vn 0.000000 -0.454300 -0.890900
vn 0.980800 0.000000 0.194900
vn 0.980800 0.000000 -0.194900
vn 0.972300 -0.233600 0.000000
vn 0.890900 -0.454300 0.000000
vn -0.194900 0.000000 0.980800
vn 0.194900 0.000000 0.980800
vn 0.000000 -0.233600 0.972300
vn 0.000000 -0.454300 0.890900
vn -0.382600 0.000000 0.923900
vn 0.382600 0.000000 0.923900
vn -0.923900 0.000000 -0.382600
vn -0.923900 0.000000 0.382600
vn 0.382600 0.000000 -0.923900
vn -0.382600 0.000000 -0.923900
vn 0.923900 0.000000 0.382600
vn 0.923900 0.000000 -0.382600
# 70 vertex normals

vt 0.999244 0.925665 0.000000
vt 0.999244 0.939229 0.000000
vt 0.975616 0.939229 0.000000
vt 0.975616 0.925665 0.000000
vt 0.999244 0.914168 0.000000
vt 0.975616 0.914168 0.000000
vt 0.069246 0.341870 0.000000
vt 0.080743 0.341870 0.000000
vt 0.080743 0.365499 0.000000
vt 0.069246 0.365499 0.000000
vt 0.055682 0.341870 0.000000
vt 0.055682 0.365499 0.000000
vt 0.042118 0.341870 0.000000
vt 0.042118 0.365499 0.000000
vt 0.030621 0.341870 0.000000
vt 0.030621 0.365499 0.000000
vt 0.450778 0.266568 0.000000
vt 0.462274 0.266568 0.000000
vt 0.462274 0.290197 0.000000
vt 0.450778 0.290197 0.000000
vt 0.437213 0.266568 0.000000
vt 0.437213 0.290197 0.000000
vt 0.423649 0.266568 0.000000
vt 0.423649 0.290197 0.000000
vt 0.412153 0.266568 0.000000
vt 0.412153 0.290197 0.000000
vt 0.097339 0.507269 0.000000
vt 0.085843 0.507269 0.000000
vt 0.085843 0.483640 0.000000
vt 0.097339 0.483640 0.000000
vt 0.110903 0.507269 0.000000
vt 0.110903 0.483640 0.000000
vt 0.124468 0.507269 0.000000
vt 0.124468 0.483640 0.000000
vt 0.135964 0.507269 0.000000
vt 0.135964 0.483640 0.000000
vt 0.999244 0.952793 0.000000
vt 0.999244 0.964290 0.000000
vt 0.975616 0.964290 0.000000
vt 0.975616 0.952793 0.000000
vt 0.402112 0.229666 0.000000
vt 0.402112 0.211601 0.000000
vt 0.425716 0.229666 0.000000
vt 0.425716 0.211601 0.000000
vt 0.402112 0.196286 0.000000
vt 0.425716 0.196286 0.000000
vt 0.661756 0.126004 0.000000
vt 0.661756 0.141318 0.000000
vt 0.638152 0.126004 0.000000
vt 0.638152 0.141318 0.000000
vt 0.661756 0.159384 0.000000
vt 0.638152 0.159384 0.000000
vt 0.661756 0.177450 0.000000
vt 0.638152 0.177450 0.000000
vt 0.661756 0.192765 0.000000
vt 0.638152 0.192765 0.000000
vt 0.998106 0.331830 0.000000
vt 0.998106 0.347145 0.000000
vt 0.974502 0.331830 0.000000
vt 0.974502 0.347145 0.000000
vt 0.998106 0.365211 0.000000
vt 0.974502 0.365211 0.000000
vt 0.998106 0.383276 0.000000
vt 0.974502 0.383276 0.000000
vt 0.998106 0.398591 0.000000
vt 0.974502 0.398591 0.000000
vt 0.738463 0.328309 0.000000
vt 0.738463 0.312994 0.000000
vt 0.762067 0.328309 0.000000
vt 0.762067 0.312994 0.000000
vt 0.738463 0.294928 0.000000
vt 0.762067 0.294928 0.000000
vt 0.738463 0.276863 0.000000
vt 0.762067 0.276863 0.000000
vt 0.738463 0.261548 0.000000
vt 0.762067 0.261548 0.000000
vt 0.402112 0.263047 0.000000
vt 0.402112 0.247732 0.000000
vt 0.425716 0.263047 0.000000
vt 0.425716 0.247732 0.000000
vt 0.509398 0.524720 0.000000
vt 0.502852 0.534424 0.000000
vt 0.492551 0.517654 0.000000
vt 0.490216 0.529124 0.000000
vt 0.474281 0.517576 0.000000
vt 0.476515 0.529067 0.000000
vt 0.457371 0.524492 0.000000
vt 0.463832 0.534252 0.000000
vt 0.444397 0.537355 0.000000
vt 0.454102 0.543900 0.000000
vt 0.437331 0.554202 0.000000
vt 0.448801 0.556536 0.000000
vt 0.437253 0.572472 0.000000
vt 0.448744 0.570238 0.000000
vt 0.444169 0.589382 0.000000
vt 0.453930 0.582921 0.000000
vt 0.457032 0.602356 0.000000
vt 0.463578 0.592651 0.000000
vt 0.473880 0.609422 0.000000
vt 0.476214 0.597951 0.000000
vt 0.492149 0.609499 0.000000
vt 0.489916 0.598008 0.000000
vt 0.509059 0.602583 0.000000
vt 0.502598 0.592823 0.000000
vt 0.522033 0.589721 0.000000
vt 0.512329 0.583175 0.000000
vt 0.529099 0.572873 0.000000
vt 0.517629 0.570539 0.000000
vt 0.529177 0.554604 0.000000
vt 0.517686 0.556837 0.000000
vt 0.522261 0.537693 0.000000
vt 0.512500 0.544155 0.000000
vt 0.525239 0.866871 0.000000
vt 0.551422 0.828053 0.000000
vt 0.577149 0.854001 0.000000
vt 0.538102 0.879844 0.000000
vt 0.590980 0.887820 0.000000
vt 0.545018 0.896755 0.000000
vt 0.590825 0.924358 0.000000
vt 0.544940 0.915024 0.000000
vt 0.576692 0.958054 0.000000
vt 0.537874 0.931871 0.000000
vt 0.550744 0.983781 0.000000
vt 0.524900 0.944734 0.000000
vt 0.516924 0.997612 0.000000
vt 0.507990 0.951650 0.000000
vt 0.480386 0.997457 0.000000
vt 0.489720 0.951573 0.000000
vt 0.446690 0.983324 0.000000
vt 0.472873 0.944506 0.000000
vt 0.420963 0.957376 0.000000
vt 0.460010 0.931533 0.000000
vt 0.407132 0.923557 0.000000
vt 0.453094 0.914622 0.000000
vt 0.407287 0.887019 0.000000
vt 0.453172 0.896353 0.000000
vt 0.421420 0.853323 0.000000
vt 0.460238 0.879506 0.000000
vt 0.447368 0.827596 0.000000
vt 0.473212 0.866643 0.000000
vt 0.481188 0.813765 0.000000
vt 0.490122 0.859727 0.000000
vt 0.517726 0.813920 0.000000
vt 0.508392 0.859804 0.000000
vt 0.661756 0.211601 0.000000
vt 0.661756 0.229666 0.000000
vt 0.661756 0.196286 0.000000
vt 0.402112 0.141318 0.000000
vt 0.402112 0.126004 0.000000
vt 0.402112 0.159384 0.000000
vt 0.402112 0.177450 0.000000
vt 0.402112 0.192765 0.000000
vt 0.738463 0.347145 0.000000
vt 0.738463 0.331830 0.000000
vt 0.738463 0.365211 0.000000
vt 0.738463 0.383276 0.000000
vt 0.738463 0.398591 0.000000
vt 0.998106 0.312994 0.000000
vt 0.998106 0.328309 0.000000
vt 0.998106 0.294928 0.000000
vt 0.998106 0.276863 0.000000
vt 0.998106 0.261548 0.000000
vt 0.661756 0.247732 0.000000
vt 0.661756 0.263047 0.000000
vt 0.833846 0.939229 0.000000
vt 0.833846 0.925665 0.000000
vt 0.833846 0.914168 0.000000
vt 0.080743 0.507269 0.000000
vt 0.069246 0.507269 0.000000
vt 0.055682 0.507269 0.000000
vt 0.042118 0.507269 0.000000
vt 0.030621 0.507269 0.000000
vt 0.462274 0.431967 0.000000
vt 0.450778 0.431967 0.000000
vt 0.437213 0.431967 0.000000
vt 0.423649 0.431967 0.000000
vt 0.412153 0.431967 0.000000
vt 0.085843 0.341870 0.000000
vt 0.097339 0.341870 0.000000
vt 0.110903 0.341870 0.000000
vt 0.124468 0.341870 0.000000
vt 0.135964 0.341870 0.000000
vt 0.833846 0.964290 0.000000
vt 0.833846 0.952793 0.000000
vt 0.335229 0.610611 0.000000
vt 0.321790 0.607939 0.000000
vt 0.356907 0.607939 0.000000
vt 0.346621 0.618225 0.000000
vt 0.354235 0.629616 0.000000
vt 0.356907 0.643056 0.000000
vt 0.363548 0.459658 0.000000
vt 0.376988 0.462330 0.000000
vt 0.341870 0.462330 0.000000
vt 0.352157 0.452044 0.000000
vt 0.344542 0.440653 0.000000
vt 0.341870 0.427213 0.000000
vt 0.581217 0.665832 0.000000
vt 0.567777 0.663160 0.000000
vt 0.602895 0.663160 0.000000
vt 0.592608 0.673447 0.000000
vt 0.600223 0.684838 0.000000
vt 0.602895 0.698278 0.000000
vt 0.565082 0.636439 0.000000
vt 0.567754 0.622999 0.000000
vt 0.567754 0.658116 0.000000
vt 0.557467 0.647830 0.000000
vt 0.546076 0.655444 0.000000
vt 0.532636 0.658116 0.000000
vt 0.256528 0.268246 0.000000
vt 0.373705 0.268246 0.000000
vt 0.373705 0.279963 0.000000
vt 0.256528 0.279963 0.000000
vt 0.166165 0.479008 0.000000
vt 0.166165 0.361951 0.000000
vt 0.187247 0.361951 0.000000
vt 0.187247 0.479008 0.000000
vt 0.398686 0.327811 0.000000
vt 0.281629 0.327811 0.000000
vt 0.281629 0.306729 0.000000
vt 0.398686 0.306729 0.000000
vt 0.246488 0.231427 0.000000
vt 0.363665 0.231427 0.000000
vt 0.363665 0.243145 0.000000
vt 0.246488 0.243145 0.000000
vt 0.358645 0.206326 0.000000
vt 0.358645 0.218044 0.000000
vt 0.241467 0.218044 0.000000
vt 0.241467 0.206326 0.000000
vt 0.398686 0.331830 0.000000
vt 0.398686 0.352912 0.000000
vt 0.281629 0.352912 0.000000
vt 0.281629 0.331830 0.000000
vt 0.398686 0.281629 0.000000
vt 0.398686 0.302711 0.000000
vt 0.281629 0.302711 0.000000
vt 0.281629 0.281629 0.000000
vt 0.363665 0.254863 0.000000
vt 0.246488 0.254863 0.000000
vt 0.373705 0.256528 0.000000
vt 0.256528 0.256528 0.000000
vt 0.634041 0.724996 0.000000
vt 0.612959 0.724996 0.000000
vt 0.612959 0.607939 0.000000
vt 0.634041 0.607939 0.000000
vt 0.166165 0.492475 0.000000
vt 0.187247 0.492475 0.000000
vt 0.187247 0.609532 0.000000
vt 0.166165 0.609532 0.000000
vt 0.659818 0.725116 0.000000
vt 0.648100 0.725116 0.000000
vt 0.648100 0.607939 0.000000
vt 0.659818 0.607939 0.000000
vt 0.358645 0.229762 0.000000
vt 0.241467 0.229762 0.000000
vt 0.634041 0.728422 0.000000
vt 0.634041 0.845480 0.000000
vt 0.612959 0.845480 0.000000
vt 0.612959 0.728422 0.000000
vt 0.669182 0.728422 0.000000
vt 0.669182 0.845480 0.000000
vt 0.648100 0.845480 0.000000
vt 0.648100 0.728422 0.000000
vt 0.671535 0.607939 0.000000
vt 0.671535 0.725116 0.000000
vt 0.544342 0.634705 0.000000
vt 0.544342 0.655787 0.000000
vt 0.565424 0.634705 0.000000
vt 0.579483 0.665490 0.000000
vt 0.579483 0.686572 0.000000
vt 0.600565 0.686572 0.000000
vt 0.333496 0.610268 0.000000
vt 0.333496 0.631350 0.000000
vt 0.354578 0.631350 0.000000
vt 0.365282 0.438919 0.000000
vt 0.344200 0.438919 0.000000
vt 0.365282 0.460001 0.000000
vt 0.583839 0.814766 0.000000
vt 0.582105 0.814424 0.000000
vt 0.583839 0.793684 0.000000
vt 0.563100 0.795418 0.000000
vt 0.562757 0.793684 0.000000
vt 0.724404 0.924208 0.000000
vt 0.703664 0.925942 0.000000
vt 0.703322 0.924208 0.000000
vt 0.724404 0.945290 0.000000
vt 0.722670 0.944948 0.000000
vt 0.352912 0.488456 0.000000
vt 0.351178 0.467717 0.000000
vt 0.352912 0.467374 0.000000
vt 0.331830 0.488456 0.000000
vt 0.332173 0.486722 0.000000
vt 0.201306 0.212348 0.000000
vt 0.201649 0.210614 0.000000
vt 0.222388 0.212348 0.000000
vt 0.220654 0.191608 0.000000
vt 0.222388 0.191266 0.000000
vt 0.570714 0.806809 0.000000
vt 0.711279 0.937333 0.000000
vt 0.209263 0.199223 0.000000
vt 0.339787 0.475331 0.000000
vt 0.391976 0.258981 0.000000
vt 0.377461 0.237267 0.000000
vt 0.377461 0.147718 0.000000
vt 0.391976 0.126004 0.000000
vt 0.370891 0.204198 0.000000
vt 0.370891 0.180787 0.000000
vt 0.833431 0.993975 0.000000
vt 0.798705 0.993975 0.000000
vt 0.798705 0.969390 0.000000
vt 0.833431 0.969390 0.000000
vt 0.856233 0.993975 0.000000
vt 0.856233 0.969390 0.000000
vt 0.215851 0.429520 0.000000
vt 0.191266 0.429520 0.000000
vt 0.191266 0.406718 0.000000
vt 0.215851 0.406718 0.000000
vt 0.926515 0.969390 0.000000
vt 0.926515 0.993975 0.000000
vt 0.903713 0.993975 0.000000
vt 0.903713 0.969390 0.000000
vt 0.245972 0.472395 0.000000
vt 0.245972 0.495197 0.000000
vt 0.221387 0.495197 0.000000
vt 0.221387 0.472395 0.000000
vt 0.642564 0.893673 0.000000
vt 0.617979 0.893673 0.000000
vt 0.617979 0.858946 0.000000
vt 0.642564 0.858946 0.000000
vt 0.642564 0.916475 0.000000
vt 0.617979 0.916475 0.000000
vt 0.939269 0.969390 0.000000
vt 0.962071 0.969390 0.000000
vt 0.962071 0.993975 0.000000
vt 0.939269 0.993975 0.000000
vt 0.683241 0.922519 0.000000
vt 0.683241 0.899108 0.000000
vt 0.816218 0.899108 0.000000
vt 0.816218 0.922519 0.000000
vt 0.040661 0.311750 0.000000
vt 0.063464 0.311750 0.000000
vt 0.063464 0.336334 0.000000
vt 0.040661 0.336334 0.000000
vt 0.821092 0.934249 0.000000
vt 0.821092 0.958834 0.000000
vt 0.798290 0.958834 0.000000
vt 0.798290 0.934249 0.000000
vt 0.097353 0.763564 0.000000
vt 0.133470 0.763564 0.000000
vt 0.097353 0.999500 0.000000
vt 0.133470 0.999500 0.000000
vt 0.164084 0.763564 0.000000
vt 0.164084 0.999500 0.000000
vt 0.030621 0.517576 0.000000
vt 0.061235 0.517576 0.000000
vt 0.030621 0.753512 0.000000
vt 0.061235 0.753512 0.000000
vt 0.097353 0.517576 0.000000
vt 0.097353 0.753512 0.000000
vt 0.133470 0.517576 0.000000
vt 0.133470 0.753512 0.000000
vt 0.164084 0.517576 0.000000
vt 0.164084 0.753512 0.000000
vt 0.816704 0.843875 0.000000
vt 0.786090 0.843875 0.000000
vt 0.816704 0.607939 0.000000
vt 0.786090 0.607939 0.000000
vt 0.749973 0.843875 0.000000
vt 0.749973 0.607939 0.000000
vt 0.713855 0.843875 0.000000
vt 0.713855 0.607939 0.000000
vt 0.683241 0.843875 0.000000
vt 0.683241 0.607939 0.000000
vt 0.166165 0.997430 0.000000
vt 0.166165 0.966816 0.000000
vt 0.402102 0.997430 0.000000
vt 0.402102 0.966816 0.000000
vt 0.166165 0.930698 0.000000
vt 0.402102 0.930698 0.000000
vt 0.166165 0.894581 0.000000
vt 0.402102 0.894581 0.000000
vt 0.166165 0.863967 0.000000
vt 0.402102 0.863967 0.000000
vt 0.030621 0.763564 0.000000
vt 0.061235 0.763564 0.000000
vt 0.030621 0.999500 0.000000
vt 0.061235 0.999500 0.000000
vt 0.957558 0.912109 0.000000
vt 0.912352 0.912109 0.000000
vt 0.912352 0.658140 0.000000
vt 0.957534 0.658140 0.000000
vt 0.995878 0.912109 0.000000
vt 0.995866 0.658140 0.000000
vt 0.867145 0.656081 0.000000
vt 0.828825 0.656081 0.000000
vt 0.828837 0.402112 0.000000
vt 0.867169 0.402112 0.000000
vt 0.912351 0.656081 0.000000
vt 0.912351 0.402112 0.000000
vt 0.957558 0.656081 0.000000
vt 0.957534 0.402112 0.000000
vt 0.995877 0.656081 0.000000
vt 0.995866 0.402112 0.000000
vt 0.816726 0.565986 0.000000
vt 0.816726 0.604306 0.000000
vt 0.562757 0.604294 0.000000
vt 0.562757 0.565962 0.000000
vt 0.816726 0.520780 0.000000
vt 0.562757 0.520780 0.000000
vt 0.816726 0.475573 0.000000
vt 0.562757 0.475597 0.000000
vt 0.816726 0.437253 0.000000
vt 0.562757 0.437265 0.000000
vt 0.726363 0.395301 0.000000
vt 0.726363 0.433620 0.000000
vt 0.472394 0.433608 0.000000
vt 0.472394 0.395277 0.000000
vt 0.726363 0.350094 0.000000
vt 0.472394 0.350094 0.000000
vt 0.726363 0.304888 0.000000
vt 0.472394 0.304912 0.000000
vt 0.726363 0.266568 0.000000
vt 0.472394 0.266580 0.000000
vt 0.867145 0.912109 0.000000
vt 0.828825 0.912109 0.000000
vt 0.828837 0.658140 0.000000
vt 0.867169 0.658140 0.000000
vt 0.517033 0.668181 0.000000
vt 0.497287 0.698907 0.000000
vt 0.470846 0.716008 0.000000
vt 0.467374 0.735275 0.000000
vt 0.490795 0.734866 0.000000
vt 0.498538 0.770577 0.000000
vt 0.471516 0.754409 0.000000
vt 0.519344 0.800595 0.000000
vt 0.549465 0.810636 0.000000
vt 0.501637 0.764449 0.000000
vt 0.528659 0.780617 0.000000
vt 0.497495 0.745315 0.000000
vt 0.520916 0.744906 0.000000
vt 0.500967 0.726049 0.000000
vt 0.527408 0.708947 0.000000
vt 0.547154 0.678221 0.000000
vt 0.750394 0.939269 0.000000
vt 0.704207 0.987097 0.000000
vt 0.720375 0.960075 0.000000
vt 0.685073 0.991239 0.000000
vt 0.684665 0.967818 0.000000
vt 0.665807 0.987767 0.000000
vt 0.648706 0.961326 0.000000
vt 0.617979 0.941580 0.000000
vt 0.577275 0.693281 0.000000
vt 0.557529 0.724008 0.000000
vt 0.531088 0.741109 0.000000
vt 0.527616 0.760376 0.000000
vt 0.551037 0.759967 0.000000
vt 0.558780 0.795677 0.000000
vt 0.531758 0.779509 0.000000
vt 0.579586 0.825696 0.000000
vt 0.251508 0.204198 0.000000
vt 0.251508 0.180787 0.000000
vt 0.030621 0.051678 0.000000
vt 0.030621 0.000500 0.000000
vt 0.056210 0.000500 0.000000
vt 0.056210 0.051678 0.000000
vt 0.030621 0.307567 0.000000
vt 0.056210 0.307567 0.000000
vt 0.341679 0.000500 0.000000
vt 0.107565 0.119884 0.000000
vt 0.060742 0.119884 0.000000
vt 0.060742 0.000500 0.000000
vt 0.964178 0.134944 0.000000
vt 0.683241 0.134944 0.000000
vt 0.683241 0.015560 0.000000
vt 0.730064 0.015560 0.000000
vt 0.281629 0.452245 0.000000
vt 0.305802 0.452245 0.000000
vt 0.305802 0.466121 0.000000
vt 0.281629 0.466121 0.000000
vt 0.305802 0.477883 0.000000
vt 0.281629 0.477883 0.000000
vt 0.272560 0.371991 0.000000
vt 0.272560 0.396116 0.000000
vt 0.260822 0.396116 0.000000
vt 0.260822 0.371991 0.000000
vt 0.246973 0.396116 0.000000
vt 0.246973 0.371991 0.000000
vt 0.233125 0.396116 0.000000
vt 0.233125 0.371991 0.000000
vt 0.221387 0.396116 0.000000
vt 0.221387 0.371991 0.000000
vt 0.601942 0.659112 0.000000
vt 0.577818 0.659112 0.000000
vt 0.577818 0.647374 0.000000
vt 0.601942 0.647374 0.000000
vt 0.577818 0.633525 0.000000
vt 0.601942 0.633525 0.000000
vt 0.577818 0.619677 0.000000
vt 0.601942 0.619677 0.000000
vt 0.577818 0.607939 0.000000
vt 0.601942 0.607939 0.000000
vt 0.296689 0.356931 0.000000
vt 0.320862 0.356931 0.000000
vt 0.320862 0.368693 0.000000
vt 0.296689 0.368693 0.000000
vt 0.320862 0.382570 0.000000
vt 0.296689 0.382570 0.000000
vt 0.105253 0.275122 0.000000
vt 0.124890 0.246008 0.000000
vt 0.134538 0.255739 0.000000
vt 0.139724 0.268421 0.000000
vt 0.139667 0.282123 0.000000
vt 0.134366 0.294759 0.000000
vt 0.124636 0.304407 0.000000
vt 0.111953 0.309592 0.000000
vt 0.098252 0.309535 0.000000
vt 0.085616 0.304235 0.000000
vt 0.075968 0.294505 0.000000
vt 0.070782 0.281822 0.000000
vt 0.070839 0.268120 0.000000
vt 0.076140 0.255484 0.000000
vt 0.084357 0.247331 0.000000
vt 0.098711 0.241467 0.000000
vt 0.114217 0.241527 0.000000
vt 0.296689 0.394292 0.000000
vt 0.320862 0.394292 0.000000
vt 0.296689 0.407601 0.000000
vt 0.320862 0.407601 0.000000
vt 0.281629 0.440528 0.000000
vt 0.281629 0.427213 0.000000
vt 0.305802 0.427213 0.000000
vt 0.305802 0.440528 0.000000
vt 0.335923 0.447832 0.000000
vt 0.311750 0.447832 0.000000
vt 0.311750 0.433955 0.000000
vt 0.335923 0.433955 0.000000
vt 0.311750 0.422193 0.000000
vt 0.335923 0.422193 0.000000
vt 0.672224 0.910120 0.000000
vt 0.648100 0.910120 0.000000
vt 0.648100 0.898382 0.000000
vt 0.672224 0.898382 0.000000
vt 0.648100 0.884533 0.000000
vt 0.672224 0.884533 0.000000
vt 0.648100 0.870684 0.000000
vt 0.672224 0.870684 0.000000
vt 0.648100 0.858946 0.000000
vt 0.672224 0.858946 0.000000
vt 0.638060 0.948333 0.000000
vt 0.638060 0.924208 0.000000
vt 0.649798 0.924208 0.000000
vt 0.649797 0.948333 0.000000
vt 0.663646 0.924208 0.000000
vt 0.663646 0.948333 0.000000
vt 0.677495 0.924208 0.000000
vt 0.677495 0.948333 0.000000
vt 0.689233 0.924208 0.000000
vt 0.689233 0.948333 0.000000
vt 0.246488 0.281629 0.000000
vt 0.270661 0.281629 0.000000
vt 0.270661 0.293390 0.000000
vt 0.246488 0.293390 0.000000
vt 0.270661 0.307268 0.000000
vt 0.246488 0.307268 0.000000
vt 0.255041 0.577147 0.000000
vt 0.225928 0.557510 0.000000
vt 0.235658 0.547862 0.000000
vt 0.248340 0.542677 0.000000
vt 0.262042 0.542734 0.000000
vt 0.274678 0.548034 0.000000
vt 0.284326 0.557764 0.000000
vt 0.289512 0.570447 0.000000
vt 0.289455 0.584149 0.000000
vt 0.284154 0.596785 0.000000
vt 0.274424 0.606433 0.000000
vt 0.261741 0.611618 0.000000
vt 0.248040 0.611561 0.000000
vt 0.235404 0.606261 0.000000
vt 0.227250 0.598043 0.000000
vt 0.221387 0.583689 0.000000
vt 0.221446 0.568184 0.000000
vt 0.246488 0.318990 0.000000
vt 0.270661 0.318990 0.000000
vt 0.246488 0.332299 0.000000
vt 0.270661 0.332299 0.000000
vt 0.335923 0.459548 0.000000
vt 0.335923 0.472863 0.000000
vt 0.311750 0.472863 0.000000
vt 0.311750 0.459548 0.000000
vt 0.743414 0.998583 0.000000
vt 0.743414 0.974410 0.000000
vt 0.757291 0.974410 0.000000
vt 0.757291 0.998583 0.000000
vt 0.769052 0.974410 0.000000
vt 0.769052 0.998583 0.000000
vt 0.245511 0.458306 0.000000
vt 0.221387 0.458306 0.000000
vt 0.221387 0.446568 0.000000
vt 0.245511 0.446568 0.000000
vt 0.221387 0.432719 0.000000
vt 0.245511 0.432719 0.000000
vt 0.221387 0.418871 0.000000
vt 0.245511 0.418871 0.000000
vt 0.221387 0.407132 0.000000
vt 0.245511 0.407132 0.000000
vt 0.527616 0.577818 0.000000
vt 0.551740 0.577818 0.000000
vt 0.551740 0.589556 0.000000
vt 0.527616 0.589556 0.000000
vt 0.551740 0.603405 0.000000
vt 0.527616 0.603405 0.000000
vt 0.551740 0.617253 0.000000
vt 0.527616 0.617253 0.000000
vt 0.551740 0.628991 0.000000
vt 0.527616 0.628991 0.000000
vt 0.315842 0.608408 0.000000
vt 0.291669 0.608408 0.000000
vt 0.291669 0.596646 0.000000
vt 0.315842 0.596646 0.000000
vt 0.291669 0.582769 0.000000
vt 0.315842 0.582769 0.000000
vt 0.175535 0.255041 0.000000
vt 0.195172 0.225928 0.000000
vt 0.204820 0.235658 0.000000
vt 0.210006 0.248341 0.000000
vt 0.209949 0.262042 0.000000
vt 0.204649 0.274678 0.000000
vt 0.194918 0.284326 0.000000
vt 0.182236 0.289512 0.000000
vt 0.168534 0.289455 0.000000
vt 0.155898 0.284154 0.000000
vt 0.146250 0.274424 0.000000
vt 0.141064 0.261741 0.000000
vt 0.141121 0.248040 0.000000
vt 0.146422 0.235404 0.000000
vt 0.154639 0.227250 0.000000
vt 0.168993 0.221387 0.000000
vt 0.184499 0.221446 0.000000
vt 0.315842 0.571046 0.000000
vt 0.291669 0.571046 0.000000
vt 0.315842 0.557737 0.000000
vt 0.291669 0.557737 0.000000
vt 0.731697 0.998583 0.000000
vt 0.718382 0.998583 0.000000
vt 0.718382 0.974410 0.000000
vt 0.731697 0.974410 0.000000
vt 0.305802 0.518114 0.000000
vt 0.281629 0.518114 0.000000
vt 0.281629 0.504237 0.000000
vt 0.305802 0.504237 0.000000
vt 0.281629 0.492475 0.000000
vt 0.305802 0.492475 0.000000
vt 0.275632 0.463326 0.000000
vt 0.251508 0.463326 0.000000
vt 0.251508 0.451588 0.000000
vt 0.275632 0.451588 0.000000
vt 0.251508 0.437739 0.000000
vt 0.275632 0.437739 0.000000
vt 0.251508 0.423891 0.000000
vt 0.275632 0.423891 0.000000
vt 0.251508 0.412153 0.000000
vt 0.275632 0.412153 0.000000
vt 0.251508 0.477415 0.000000
vt 0.275632 0.477415 0.000000
vt 0.275632 0.489153 0.000000
vt 0.251508 0.489153 0.000000
vt 0.275632 0.503001 0.000000
vt 0.251508 0.503001 0.000000
vt 0.275632 0.516850 0.000000
vt 0.251508 0.516850 0.000000
vt 0.275632 0.528588 0.000000
vt 0.251508 0.528588 0.000000
vt 0.191735 0.291669 0.000000
vt 0.191735 0.315842 0.000000
vt 0.179973 0.315842 0.000000
vt 0.179973 0.291669 0.000000
vt 0.166096 0.315842 0.000000
vt 0.166096 0.291669 0.000000
vt 0.366301 0.391402 0.000000
vt 0.395415 0.411039 0.000000
vt 0.385684 0.420687 0.000000
vt 0.373001 0.425873 0.000000
vt 0.359300 0.425816 0.000000
vt 0.346664 0.420515 0.000000
vt 0.337016 0.410785 0.000000
vt 0.331830 0.398102 0.000000
vt 0.331887 0.384401 0.000000
vt 0.337188 0.371765 0.000000
vt 0.346918 0.362117 0.000000
vt 0.359601 0.356931 0.000000
vt 0.373302 0.356988 0.000000
vt 0.385938 0.362288 0.000000
vt 0.394091 0.370506 0.000000
vt 0.399955 0.384860 0.000000
vt 0.399896 0.400366 0.000000
vt 0.154373 0.291669 0.000000
vt 0.154373 0.315842 0.000000
vt 0.141064 0.291669 0.000000
vt 0.141064 0.315842 0.000000
vt 0.305802 0.529830 0.000000
vt 0.305802 0.543145 0.000000
vt 0.281629 0.543145 0.000000
vt 0.281629 0.529830 0.000000
vt 0.552621 0.570230 0.000000
vt 0.538106 0.548516 0.000000
vt 0.538106 0.458968 0.000000
vt 0.552621 0.437253 0.000000
vt 0.531536 0.515448 0.000000
vt 0.531536 0.492036 0.000000
vt 0.245972 0.529923 0.000000
vt 0.221387 0.529923 0.000000
vt 0.191266 0.371991 0.000000
vt 0.215851 0.371991 0.000000
vt 0.683241 0.872317 0.000000
vt 0.683241 0.848906 0.000000
vt 0.816218 0.848906 0.000000
vt 0.816218 0.872317 0.000000
vt 0.412153 0.515448 0.000000
vt 0.412153 0.492036 0.000000
vt 0.000500 0.056698 0.000000
vt 0.000500 0.005520 0.000000
vt 0.026089 0.005520 0.000000
vt 0.026089 0.056698 0.000000
vt 0.000500 0.312587 0.000000
vt 0.026089 0.312587 0.000000
vt 0.392072 0.124904 0.000000
vt 0.626186 0.005520 0.000000
vt 0.673009 0.005520 0.000000
vt 0.673009 0.124904 0.000000
vt 0.718382 0.136044 0.000000
vt 0.999319 0.136044 0.000000
vt 0.999319 0.255428 0.000000
vt 0.952496 0.255428 0.000000
vt 0.382032 0.803629 0.000000
vt 0.403746 0.789114 0.000000
vt 0.493295 0.789114 0.000000
vt 0.515009 0.803629 0.000000
vt 0.436815 0.782544 0.000000
vt 0.460226 0.782544 0.000000
vt 0.098190 0.311750 0.000000
vt 0.098190 0.336334 0.000000
vt 0.868987 0.993975 0.000000
vt 0.868987 0.969390 0.000000
vt 0.164476 0.504968 0.000000
vt 0.141064 0.504968 0.000000
vt 0.141064 0.371991 0.000000
vt 0.164476 0.371991 0.000000
vt 0.436815 0.663160 0.000000
vt 0.460226 0.663160 0.000000
vt 0.000500 0.679197 0.000000
vt 0.000500 0.628019 0.000000
vt 0.026089 0.628019 0.000000
vt 0.026089 0.679197 0.000000
vt 0.000500 0.935086 0.000000
vt 0.026089 0.935086 0.000000
vt 0.351719 0.120984 0.000000
vt 0.117605 0.240367 0.000000
vt 0.070782 0.240367 0.000000
vt 0.070782 0.120984 0.000000
vt 0.954138 0.260448 0.000000
vt 0.673201 0.260448 0.000000
vt 0.673201 0.141064 0.000000
vt 0.720023 0.141064 0.000000
vt 0.537657 0.999415 0.000000
vt 0.559371 0.984900 0.000000
vt 0.648919 0.984900 0.000000
vt 0.670633 0.999415 0.000000
vt 0.592439 0.978330 0.000000
vt 0.615851 0.978330 0.000000
vt 0.996798 0.969390 0.000000
vt 0.996798 0.993975 0.000000
vt 0.763564 0.958834 0.000000
vt 0.763564 0.934249 0.000000
vt 0.683241 0.897418 0.000000
vt 0.683241 0.874007 0.000000
vt 0.816218 0.874007 0.000000
vt 0.816218 0.897418 0.000000
vt 0.592439 0.858946 0.000000
vt 0.615851 0.858946 0.000000
vt 0.026089 0.572659 0.000000
vt 0.026089 0.623837 0.000000
vt 0.000500 0.623837 0.000000
vt 0.000500 0.572659 0.000000
vt 0.026089 0.316770 0.000000
vt 0.000500 0.316770 0.000000
vt 0.627828 0.000500 0.000000
vt 0.393714 0.119884 0.000000
vt 0.346891 0.119884 0.000000
vt 0.346891 0.000500 0.000000
vt 0.718382 0.005520 0.000000
vt 0.999319 0.005520 0.000000
vt 0.999319 0.124904 0.000000
vt 0.952496 0.124904 0.000000
vt 0.207787 0.442274 0.000000
vt 0.207787 0.484348 0.000000
vt 0.201306 0.484348 0.000000
vt 0.201306 0.442274 0.000000
vt 0.207787 0.520965 0.000000
vt 0.201306 0.520965 0.000000
vt 0.197747 0.611328 0.000000
vt 0.191266 0.611328 0.000000
vt 0.191266 0.569254 0.000000
vt 0.197747 0.569254 0.000000
vt 0.191266 0.532636 0.000000
vt 0.197747 0.532636 0.000000
vt 0.363667 0.654959 0.000000
vt 0.198125 0.654959 0.000000
vt 0.236121 0.629569 0.000000
vt 0.325670 0.629569 0.000000
vt 0.316013 0.702613 0.000000
vt 0.245779 0.702613 0.000000
vt 0.269190 0.622999 0.000000
vt 0.292601 0.622999 0.000000
vt 0.365341 0.162606 0.000000
vt 0.323266 0.162606 0.000000
vt 0.323266 0.156125 0.000000
vt 0.365341 0.156125 0.000000
vt 0.286649 0.162606 0.000000
vt 0.286649 0.156125 0.000000
vt 0.217828 0.611328 0.000000
vt 0.211346 0.611328 0.000000
vt 0.211346 0.569254 0.000000
vt 0.217828 0.569254 0.000000
vt 0.211346 0.532636 0.000000
vt 0.217828 0.532636 0.000000
vt 0.363667 0.820501 0.000000
vt 0.389057 0.692955 0.000000
vt 0.389057 0.782504 0.000000
vt 0.316013 0.772847 0.000000
vt 0.395626 0.726024 0.000000
vt 0.395626 0.749436 0.000000
vt 0.191266 0.520966 0.000000
vt 0.191266 0.478891 0.000000
vt 0.197747 0.478891 0.000000
vt 0.197747 0.520966 0.000000
vt 0.191266 0.442274 0.000000
vt 0.197747 0.442274 0.000000
vt 0.201306 0.532636 0.000000
vt 0.207787 0.532636 0.000000
vt 0.207787 0.574711 0.000000
vt 0.201306 0.574711 0.000000
vt 0.207787 0.611328 0.000000
vt 0.201306 0.611328 0.000000
vt 0.198125 0.820501 0.000000
vt 0.325670 0.845891 0.000000
vt 0.236121 0.845891 0.000000
vt 0.245779 0.772847 0.000000
vt 0.292601 0.852460 0.000000
vt 0.269190 0.852460 0.000000
vt 0.211346 0.520965 0.000000
vt 0.211346 0.478891 0.000000
vt 0.217828 0.478891 0.000000
vt 0.217828 0.520965 0.000000
vt 0.211346 0.442274 0.000000
vt 0.217828 0.442274 0.000000
vt 0.817155 0.924208 0.000000
vt 0.817155 0.930689 0.000000
vt 0.775080 0.930689 0.000000
vt 0.775080 0.924208 0.000000
vt 0.738463 0.930689 0.000000
vt 0.738463 0.924208 0.000000
vt 0.172735 0.782504 0.000000
vt 0.172735 0.692955 0.000000
vt 0.166165 0.749435 0.000000
vt 0.166165 0.726024 0.000000
# 864 texture coords

o Piece026
g Piece026
usemtl white_plastic
s 1
f 1/1/1 2/2/2 3/3/2 
f 3/3/2 4/4/1 1/1/1 
f 5/5/3 1/1/1 4/4/1 
f 4/4/1 6/6/3 5/5/3 
f 7/7/4 5/8/3 6/9/3 
f 6/9/3 8/10/4 7/7/4 
f 9/11/5 7/7/4 8/10/4 
f 8/10/4 10/12/5 9/11/5 
f 11/13/6 9/11/5 10/12/5 
f 10/12/5 12/14/6 11/13/6 
f 13/15/7 11/13/6 12/14/6 
f 12/14/6 14/16/7 13/15/7 
f 15/17/8 13/18/7 14/19/7 
f 14/19/7 16/20/8 15/17/8 
f 17/21/9 15/17/8 16/20/8 
f 16/20/8 18/22/9 17/21/9 
f 19/23/10 17/21/9 18/22/9 
f 18/22/9 20/24/10 19/23/10 
f 21/25/11 19/23/10 20/24/10 
f 20/24/10 22/26/11 21/25/11 
f 23/27/12 21/28/11 22/29/11 
f 22/29/11 24/30/12 23/27/12 
f 25/31/13 23/27/12 24/30/12 
f 24/30/12 26/32/13 25/31/13 
f 27/33/14 25/31/13 26/32/13 
f 26/32/13 28/34/14 27/33/14 
f 29/35/15 27/33/14 28/34/14 
f 28/34/14 30/36/15 29/35/15 
f 31/37/16 29/38/15 30/39/15 
f 30/39/15 32/40/16 31/37/16 
f 2/2/2 31/37/16 32/40/16 
f 32/40/16 3/3/2 2/2/2 
f 33/41/9 34/42/10 35/43/9 
f 36/44/10 35/43/9 34/42/10 
f 34/42/10 37/45/11 36/44/10 
f 38/46/11 36/44/10 37/45/11 
f 37/47/11 39/48/12 38/49/11 
f 40/50/12 38/49/11 39/48/12 
f 39/48/12 41/51/13 40/50/12 
f 42/52/13 40/50/12 41/51/13 
f 41/51/13 43/53/14 42/52/13 
f 44/54/14 42/52/13 43/53/14 
f 43/53/14 45/55/15 44/54/14 
f 46/56/15 44/54/14 45/55/15 
f 45/57/15 47/58/16 46/59/15 
f 48/60/16 46/59/15 47/58/16 
f 47/58/16 49/61/2 48/60/16 
f 50/62/2 48/60/16 49/61/2 
f 49/61/2 51/63/1 50/62/2 
f 52/64/1 50/62/2 51/63/1 
f 51/63/1 53/65/3 52/64/1 
f 54/66/3 52/64/1 53/65/3 
f 53/67/3 55/68/4 54/69/3 
f 56/70/4 54/69/3 55/68/4 
f 55/68/4 57/71/5 56/70/4 
f 58/72/5 56/70/4 57/71/5 
f 57/71/5 59/73/6 58/72/5 
f 60/74/6 58/72/5 59/73/6 
f 59/73/6 61/75/7 60/74/6 
f 62/76/7 60/74/6 61/75/7 
f 61/77/7 63/78/8 62/79/7 
f 64/80/8 62/79/7 63/78/8 
f 63/78/8 33/41/9 64/80/8 
f 35/43/9 64/80/8 33/41/9 
f 41/81/17 9/82/17 43/83/17 
f 11/84/17 43/83/17 9/82/17 
f 43/83/17 11/84/17 45/85/17 
f 13/86/17 45/85/17 11/84/17 
f 45/85/17 13/86/17 47/87/17 
f 15/88/17 47/87/17 13/86/17 
f 47/87/17 15/88/17 49/89/17 
f 17/90/17 49/89/17 15/88/17 
f 49/89/17 17/90/17 51/91/17 
f 19/92/17 51/91/17 17/90/17 
f 51/91/17 19/92/17 53/93/17 
f 21/94/17 53/93/17 19/92/17 
f 53/93/17 21/94/17 55/95/17 
f 23/96/17 55/95/17 21/94/17 
f 55/95/17 23/96/17 57/97/17 
f 25/98/17 57/97/17 23/96/17 
f 57/97/17 25/98/17 59/99/17 
f 27/100/17 59/99/17 25/98/17 
f 59/99/17 27/100/17 61/101/17 
f 29/102/17 61/101/17 27/100/17 
f 61/101/17 29/102/17 63/103/17 
f 31/104/17 63/103/17 29/102/17 
f 63/103/17 31/104/17 33/105/17 
f 2/106/17 33/105/17 31/104/17 
f 33/105/17 2/106/17 34/107/17 
f 1/108/17 34/107/17 2/106/17 
f 34/107/17 1/108/17 37/109/17 
f 5/110/17 37/109/17 1/108/17 
f 37/109/17 5/110/17 39/111/17 
f 7/112/17 39/111/17 5/110/17 
f 39/111/17 7/112/17 41/81/17 
f 9/82/17 41/81/17 7/112/17 
f 65/113/17 66/114/17 67/115/17 
f 67/115/17 68/116/17 65/113/17 
f 68/116/17 67/115/17 69/117/17 
f 69/117/17 70/118/17 68/116/17 
f 70/118/17 69/117/17 71/119/17 
f 71/119/17 72/120/17 70/118/17 
f 72/120/17 71/119/17 73/121/17 
f 73/121/17 74/122/17 72/120/17 
f 74/122/17 73/121/17 75/123/17 
f 75/123/17 76/124/17 74/122/17 
f 76/124/17 75/123/17 77/125/17 
f 77/125/17 78/126/17 76/124/17 
f 78/126/17 77/125/17 79/127/17 
f 79/127/17 80/128/17 78/126/17 
f 80/128/17 79/127/17 81/129/17 
f 81/129/17 82/130/17 80/128/17 
f 82/130/17 81/129/17 83/131/17 
f 83/131/17 84/132/17 82/130/17 
f 84/132/17 83/131/17 85/133/17 
f 85/133/17 86/134/17 84/132/17 
f 86/134/17 85/133/17 87/135/17 
f 87/135/17 88/136/17 86/134/17 
f 88/136/17 87/135/17 89/137/17 
f 89/137/17 90/138/17 88/136/17 
f 90/138/17 89/137/17 91/139/17 
f 91/139/17 92/140/17 90/138/17 
f 92/140/17 91/139/17 93/141/17 
f 93/141/17 94/142/17 92/140/17 
f 94/142/17 93/141/17 95/143/17 
f 95/143/17 96/144/17 94/142/17 
f 96/144/17 95/143/17 66/114/17 
f 66/114/17 65/113/17 96/144/17 
f 88/145/10 90/146/9 35/43/9 
f 35/43/9 36/44/10 88/145/10 
f 86/147/11 88/145/10 36/44/10 
f 36/44/10 38/46/11 86/147/11 
f 84/148/12 86/149/11 38/49/11 
f 38/49/11 40/50/12 84/148/12 
f 82/150/13 84/148/12 40/50/12 
f 40/50/12 42/52/13 82/150/13 
f 80/151/14 82/150/13 42/52/13 
f 42/52/13 44/54/14 80/151/14 
f 78/152/15 80/151/14 44/54/14 
f 44/54/14 46/56/15 78/152/15 
f 76/153/16 78/154/15 46/59/15 
f 46/59/15 48/60/16 76/153/16 
f 74/155/2 76/153/16 48/60/16 
f 48/60/16 50/62/2 74/155/2 
f 72/156/1 74/155/2 50/62/2 
f 50/62/2 52/64/1 72/156/1 
f 70/157/3 72/156/1 52/64/1 
f 52/64/1 54/66/3 70/157/3 
f 68/158/4 70/159/3 54/69/3 
f 54/69/3 56/70/4 68/158/4 
f 65/160/5 68/158/4 56/70/4 
f 56/70/4 58/72/5 65/160/5 
f 96/161/6 65/160/5 58/72/5 
f 58/72/5 60/74/6 96/161/6 
f 94/162/7 96/161/6 60/74/6 
f 60/74/6 62/76/7 94/162/7 
f 92/163/8 94/164/7 62/79/7 
f 62/79/7 64/80/8 92/163/8 
f 90/146/9 92/163/8 64/80/8 
f 64/80/8 35/43/9 90/146/9 
f 97/165/2 98/166/1 3/3/2 
f 4/4/1 3/3/2 98/166/1 
f 98/166/1 99/167/3 4/4/1 
f 6/6/3 4/4/1 99/167/3 
f 99/168/3 100/169/4 6/9/3 
f 8/10/4 6/9/3 100/169/4 
f 100/169/4 101/170/5 8/10/4 
f 10/12/5 8/10/4 101/170/5 
f 101/170/5 102/171/6 10/12/5 
f 12/14/6 10/12/5 102/171/6 
f 102/171/6 103/172/7 12/14/6 
f 14/16/7 12/14/6 103/172/7 
f 103/173/7 104/174/8 14/19/7 
f 16/20/8 14/19/7 104/174/8 
f 104/174/8 105/175/9 16/20/8 
f 18/22/9 16/20/8 105/175/9 
f 105/175/9 106/176/10 18/22/9 
f 20/24/10 18/22/9 106/176/10 
f 106/176/10 107/177/11 20/24/10 
f 22/26/11 20/24/10 107/177/11 
f 107/178/11 108/179/12 22/29/11 
f 24/30/12 22/29/11 108/179/12 
f 108/179/12 109/180/13 24/30/12 
f 26/32/13 24/30/12 109/180/13 
f 109/180/13 110/181/14 26/32/13 
f 28/34/14 26/32/13 110/181/14 
f 110/181/14 111/182/15 28/34/14 
f 30/36/15 28/34/14 111/182/15 
f 111/183/15 112/184/16 30/39/15 
f 32/40/16 30/39/15 112/184/16 
f 112/184/16 97/165/2 32/40/16 
f 3/3/2 32/40/16 97/165/2 
f 113/185/18 114/186/18 115/187/18 
f 116/188/18 113/185/18 115/187/18 
f 117/189/18 116/188/18 115/187/18 
f 118/190/18 117/189/18 115/187/18 
f 119/191/18 118/192/18 120/193/18 
f 121/194/18 119/191/18 120/193/18 
f 122/195/18 121/194/18 120/193/18 
f 123/196/18 122/195/18 120/193/18 
f 124/197/18 123/198/18 125/199/18 
f 126/200/18 124/197/18 125/199/18 
f 127/201/18 126/200/18 125/199/18 
f 128/202/18 127/201/18 125/199/18 
f 129/203/18 128/204/18 130/205/18 
f 131/206/18 129/203/18 130/205/18 
f 132/207/18 131/206/18 130/205/18 
f 114/208/18 132/207/18 130/205/18 
f 97/209/2 114/210/2 133/211/19 
f 133/211/19 134/212/19 97/209/2 
f 134/213/5 133/214/5 135/215/5 
f 135/215/5 136/216/5 134/213/5 
f 136/217/2 135/218/2 137/219/2 
f 137/219/2 138/220/2 136/217/2 
f 138/221/20 137/222/20 118/223/5 
f 118/223/5 101/224/5 138/221/20 
f 139/225/21 123/226/9 105/227/9 
f 105/227/9 140/228/21 139/225/21 
f 141/229/5 139/230/5 140/231/5 
f 140/231/5 142/232/5 141/229/5 
f 143/233/9 141/234/9 142/235/9 
f 142/235/9 144/236/9 143/233/9 
f 118/223/5 143/237/22 144/238/22 
f 144/238/22 101/224/5 118/223/5 
f 145/239/23 114/210/2 97/209/2 
f 97/209/2 146/240/23 145/239/23 
f 147/241/13 145/242/13 146/243/13 
f 146/243/13 148/244/13 147/241/13 
f 149/245/2 147/246/2 148/247/2 
f 148/247/2 150/248/2 149/245/2 
f 128/249/13 149/250/24 150/251/24 
f 150/251/24 109/252/13 128/249/13 
f 105/227/9 123/226/9 151/253/25 
f 151/253/25 152/254/25 105/227/9 
f 152/255/13 151/256/13 153/257/13 
f 153/257/13 154/258/13 152/255/13 
f 154/259/9 153/260/9 155/261/9 
f 155/261/9 156/262/9 154/259/9 
f 156/263/26 155/264/26 128/249/13 
f 128/249/13 109/252/13 156/263/26 
f 147/265/18 132/207/18 145/266/18 
f 147/265/18 149/267/18 129/203/18 
f 151/268/18 124/197/18 153/269/18 
f 127/201/18 155/270/18 153/269/18 
f 133/271/18 113/185/18 135/272/18 
f 117/189/18 137/273/18 135/272/18 
f 141/274/18 122/195/18 139/275/18 
f 141/274/18 143/276/18 119/191/18 
f 146/277/17 112/278/17 148/279/17 
f 110/280/17 150/281/17 148/279/17 
f 154/282/17 106/283/17 152/284/17 
f 154/282/17 156/285/17 108/286/17 
f 136/287/17 98/288/17 134/289/17 
f 136/287/17 138/290/17 100/291/17 
f 140/292/17 104/293/17 142/294/17 
f 102/295/17 144/296/17 142/294/17 
f 147/265/18 129/203/18 132/207/18 
f 117/189/18 113/185/18 116/188/18 
f 153/269/18 124/197/18 127/201/18 
f 122/195/18 119/191/18 121/194/18 
f 141/274/18 119/191/18 122/195/18 
f 127/201/18 124/197/18 126/200/18 
f 135/272/18 113/185/18 117/189/18 
f 132/207/18 129/203/18 131/206/18 
f 136/287/17 100/291/17 98/288/17 
f 110/280/17 112/278/17 111/297/17 
f 142/294/17 104/293/17 102/295/17 
f 106/283/17 108/286/17 107/298/17 
f 154/282/17 108/286/17 106/283/17 
f 102/295/17 104/293/17 103/299/17 
f 148/279/17 112/278/17 110/280/17 
f 98/288/17 100/291/17 99/300/17 
f 157/301/17 158/302/17 159/303/17 
f 159/303/17 160/304/17 157/301/17 
f 158/302/17 161/305/17 162/306/17 
f 162/306/17 159/303/17 158/302/17 
f 163/307/10 164/308/27 161/309/27 
f 161/309/27 158/310/10 163/307/10 
f 165/311/28 163/307/10 158/310/10 
f 158/310/10 157/312/28 165/311/28 
f 166/313/29 167/314/29 168/315/12 
f 168/315/12 169/316/12 166/313/29 
f 170/317/30 171/318/30 172/319/16 
f 172/319/16 173/320/16 170/317/30 
f 174/321/31 175/322/14 176/323/14 
f 176/323/14 177/324/31 174/321/31 
f 178/325/8 159/326/8 162/327/32 
f 162/327/32 179/328/32 178/325/8 
f 180/329/33 160/330/33 159/326/8 
f 159/326/8 178/325/8 180/329/33 
f 181/331/34 182/332/6 183/333/6 
f 183/333/6 184/334/34 181/331/34 
f 165/335/2 157/336/2 160/337/2 
f 160/337/2 180/338/2 165/335/2 
f 185/339/35 186/340/1 187/341/1 
f 187/341/1 188/342/35 185/339/35 
f 189/343/36 190/344/36 191/345/4 
f 191/345/4 192/346/4 189/343/36 
f 89/347/2 87/348/1 193/349/2 
f 194/350/1 193/349/2 87/348/1 
f 87/348/1 85/351/3 194/350/1 
f 195/352/3 194/350/1 85/351/3 
f 85/353/3 83/354/4 195/355/3 
f 196/356/4 195/355/3 83/354/4 
f 83/354/4 81/357/5 196/356/4 
f 197/358/5 196/356/4 81/357/5 
f 81/357/5 79/359/6 197/358/5 
f 198/360/6 197/358/5 79/359/6 
f 79/359/6 77/361/7 198/360/6 
f 199/362/7 198/360/6 77/361/7 
f 77/363/7 75/364/8 199/365/7 
f 200/366/8 199/365/7 75/364/8 
f 75/364/8 73/367/9 200/366/8 
f 201/368/9 200/366/8 73/367/9 
f 73/367/9 71/369/10 201/368/9 
f 202/370/10 201/368/9 71/369/10 
f 71/369/10 69/371/11 202/370/10 
f 203/372/11 202/370/10 69/371/11 
f 69/373/11 67/374/12 203/375/11 
f 204/376/12 203/375/11 67/374/12 
f 67/374/12 66/377/13 204/376/12 
f 205/378/13 204/376/12 66/377/13 
f 66/377/13 95/379/14 205/378/13 
f 206/380/14 205/378/13 95/379/14 
f 95/379/14 93/381/15 206/380/14 
f 207/382/15 206/380/14 93/381/15 
f 93/383/15 91/384/16 207/385/15 
f 208/386/16 207/385/15 91/384/16 
f 91/384/16 89/347/2 208/386/16 
f 193/349/2 208/386/16 89/347/2 
f 209/387/10 210/388/9 211/389/9 
f 211/389/9 163/390/10 209/387/10 
f 212/391/11 209/387/10 163/390/10 
f 163/390/10 213/392/11 212/391/11 
f 214/393/12 212/394/11 213/395/11 
f 213/395/11 169/396/37 214/393/12 
f 215/397/13 214/393/12 169/396/37 
f 169/396/37 216/398/13 215/397/13 
f 217/399/14 215/397/13 216/398/13 
f 216/398/13 175/400/14 217/399/14 
f 218/401/15 217/399/14 175/400/14 
f 175/400/14 219/402/15 218/401/15 
f 220/403/16 218/404/15 219/405/15 
f 219/405/15 173/406/38 220/403/16 
f 221/407/2 220/403/16 173/406/38 
f 173/406/38 222/408/2 221/407/2 
f 223/409/1 221/407/2 222/408/2 
f 222/408/2 186/410/1 223/409/1 
f 224/411/3 223/409/1 186/410/1 
f 186/410/1 225/412/3 224/411/3 
f 226/413/4 224/414/3 225/415/3 
f 225/415/3 192/416/39 226/413/4 
f 227/417/5 226/413/4 192/416/39 
f 192/416/39 228/418/5 227/417/5 
f 229/419/6 227/417/5 228/418/5 
f 228/418/5 182/420/6 229/419/6 
f 230/421/7 229/419/6 182/420/6 
f 182/420/6 231/422/7 230/421/7 
f 232/423/8 230/424/7 231/425/7 
f 231/425/7 178/426/40 232/423/8 
f 210/388/9 232/423/8 178/426/40 
f 178/426/40 211/389/9 210/388/9 
f 193/427/17 233/428/17 165/429/17 
f 213/430/17 165/429/17 233/428/17 
f 233/428/17 234/431/17 213/430/17 
f 213/430/17 234/431/17 235/432/17 
f 235/432/17 166/433/17 213/430/17 
f 197/434/17 166/433/17 235/432/17 
f 201/435/17 170/436/17 236/437/17 
f 219/438/17 237/439/17 236/437/17 
f 236/437/17 170/436/17 219/438/17 
f 219/438/17 174/440/17 238/441/17 
f 238/441/17 237/439/17 219/438/17 
f 197/442/17 238/441/17 174/440/17 
f 193/443/17 180/444/17 239/445/17 
f 231/446/17 240/447/17 239/445/17 
f 239/445/17 180/444/17 231/446/17 
f 231/446/17 181/448/17 241/449/17 
f 241/449/17 240/447/17 231/446/17 
f 205/450/17 241/449/17 181/448/17 
f 201/451/17 242/452/17 185/453/17 
f 225/454/17 185/453/17 242/452/17 
f 242/452/17 243/455/17 225/454/17 
f 225/454/17 243/455/17 244/456/17 
f 244/456/17 189/457/17 225/454/17 
f 205/458/17 189/457/17 244/456/17 
f 162/306/17 161/305/17 245/459/17 
f 245/459/17 246/460/17 162/306/17 
f 247/461/41 246/462/9 245/463/9 
f 245/463/9 248/464/41 247/461/41 
f 249/465/42 247/461/41 248/464/41 
f 248/464/41 250/466/42 249/465/42 
f 250/467/13 248/468/13 245/469/13 
f 245/469/13 161/470/13 250/467/13 
f 249/471/5 162/472/5 246/473/5 
f 246/473/5 247/474/5 249/471/5 
f 251/475/13 252/476/13 253/477/14 
f 253/477/14 254/478/14 251/475/13 
f 254/478/14 253/477/14 255/479/15 
f 255/479/15 256/480/15 254/478/14 
f 256/481/15 255/482/15 257/483/16 
f 257/483/16 258/484/16 256/481/15 
f 258/484/16 257/483/16 259/485/2 
f 259/485/2 260/486/2 258/484/16 
f 260/486/2 259/485/2 261/487/1 
f 261/487/1 262/488/1 260/486/2 
f 262/488/1 261/487/1 263/489/3 
f 263/489/3 264/490/3 262/488/1 
f 264/491/3 263/492/3 265/493/4 
f 265/493/4 266/494/4 264/491/3 
f 266/494/4 265/493/4 267/495/5 
f 267/495/5 268/496/5 266/494/4 
f 268/496/5 267/495/5 269/497/6 
f 269/497/6 270/498/6 268/496/5 
f 270/498/6 269/497/6 271/499/7 
f 271/499/7 272/500/7 270/498/6 
f 272/501/7 271/502/7 273/503/8 
f 273/503/8 274/504/8 272/501/7 
f 274/504/8 273/503/8 275/505/43 
f 275/505/43 276/506/43 274/504/8 
f 277/507/18 251/508/18 254/509/18 
f 277/507/18 254/509/18 256/510/18 
f 277/507/18 256/510/18 258/511/18 
f 277/507/18 258/511/18 260/512/18 
f 277/507/18 260/512/18 262/513/18 
f 277/507/18 262/513/18 264/514/18 
f 277/507/18 264/514/18 266/515/18 
f 277/507/18 266/515/18 268/516/18 
f 277/507/18 268/516/18 270/517/18 
f 277/507/18 270/517/18 272/518/18 
f 277/507/18 272/518/18 274/519/18 
f 277/507/18 274/519/18 276/520/18 
f 276/520/18 278/521/18 277/507/18 
f 278/521/18 279/522/18 277/507/18 
f 279/522/18 280/523/18 277/507/18 
f 280/523/18 251/508/18 277/507/18 
f 281/524/10 276/506/43 275/505/43 
f 275/505/43 282/525/10 281/524/10 
f 279/526/44 281/524/10 282/525/10 
f 282/525/10 283/527/44 279/526/44 
f 284/528/12 279/529/44 283/530/44 
f 283/530/44 285/531/12 284/528/12 
f 251/475/13 284/528/12 285/531/12 
f 285/531/12 252/476/13 251/475/13 
f 286/532/2 287/533/2 288/534/1 
f 288/534/1 289/535/1 286/532/2 
f 289/535/1 288/534/1 290/536/3 
f 290/536/3 291/537/3 289/535/1 
f 291/538/3 290/539/3 292/540/4 
f 292/540/4 293/541/4 291/538/3 
f 293/541/4 292/540/4 294/542/5 
f 294/542/5 295/543/5 293/541/4 
f 295/543/5 294/542/5 296/544/6 
f 296/544/6 297/545/6 295/543/5 
f 297/545/6 296/544/6 298/546/7 
f 298/546/7 299/547/7 297/545/6 
f 299/548/7 298/549/7 300/550/8 
f 300/550/8 301/551/8 299/548/7 
f 301/551/8 300/550/8 302/552/9 
f 302/552/9 303/553/9 301/551/8 
f 303/553/9 302/552/9 304/554/10 
f 304/554/10 305/555/10 303/553/9 
f 305/555/10 304/554/10 306/556/11 
f 306/556/11 307/557/11 305/555/10 
f 307/558/11 306/559/11 308/560/12 
f 308/560/12 309/561/12 307/558/11 
f 309/561/12 308/560/12 310/562/45 
f 310/562/45 311/563/45 309/561/12 
f 312/564/18 286/565/18 289/566/18 
f 312/564/18 289/566/18 291/567/18 
f 312/564/18 291/567/18 293/568/18 
f 312/564/18 293/568/18 295/569/18 
f 312/564/18 295/569/18 297/570/18 
f 312/564/18 297/570/18 299/571/18 
f 312/564/18 299/571/18 301/572/18 
f 312/564/18 301/572/18 303/573/18 
f 312/564/18 303/573/18 305/574/18 
f 312/564/18 305/574/18 307/575/18 
f 312/564/18 307/575/18 309/576/18 
f 312/564/18 309/576/18 311/577/18 
f 311/577/18 313/578/18 312/564/18 
f 313/578/18 314/579/18 312/564/18 
f 314/579/18 315/580/18 312/564/18 
f 315/580/18 286/565/18 312/564/18 
f 316/581/14 311/563/45 310/562/45 
f 310/562/45 317/582/14 316/581/14 
f 314/583/46 316/581/14 317/582/14 
f 317/582/14 318/584/46 314/583/46 
f 319/585/16 314/586/46 318/587/46 
f 318/587/46 320/588/16 319/585/16 
f 286/532/2 319/585/16 320/588/16 
f 320/588/16 287/533/2 286/532/2 
f 321/589/9 322/590/9 323/591/10 
f 323/591/10 324/592/10 321/589/9 
f 324/592/10 323/591/10 325/593/11 
f 325/593/11 326/594/11 324/592/10 
f 326/595/11 325/596/11 327/597/12 
f 327/597/12 328/598/12 326/595/11 
f 328/598/12 327/597/12 329/599/13 
f 329/599/13 330/600/13 328/598/12 
f 330/600/13 329/599/13 331/601/14 
f 331/601/14 332/602/14 330/600/13 
f 332/602/14 331/601/14 333/603/15 
f 333/603/15 334/604/15 332/602/14 
f 334/605/15 333/606/15 335/607/16 
f 335/607/16 336/608/16 334/605/15 
f 336/608/16 335/607/16 337/609/2 
f 337/609/2 338/610/2 336/608/16 
f 338/610/2 337/609/2 339/611/1 
f 339/611/1 340/612/1 338/610/2 
f 340/612/1 339/611/1 341/613/3 
f 341/613/3 342/614/3 340/612/1 
f 342/615/3 341/616/3 343/617/4 
f 343/617/4 344/618/4 342/615/3 
f 344/618/4 343/617/4 345/619/47 
f 345/619/47 346/620/47 344/618/4 
f 347/621/18 321/622/18 324/623/18 
f 347/621/18 324/623/18 326/624/18 
f 347/621/18 326/624/18 328/625/18 
f 347/621/18 328/625/18 330/626/18 
f 347/621/18 330/626/18 332/627/18 
f 347/621/18 332/627/18 334/628/18 
f 347/621/18 334/628/18 336/629/18 
f 347/621/18 336/629/18 338/630/18 
f 347/621/18 338/630/18 340/631/18 
f 347/621/18 340/631/18 342/632/18 
f 347/621/18 342/632/18 344/633/18 
f 347/621/18 344/633/18 346/634/18 
f 346/634/18 348/635/18 347/621/18 
f 348/635/18 349/636/18 347/621/18 
f 349/636/18 350/637/18 347/621/18 
f 350/637/18 321/622/18 347/621/18 
f 351/638/6 346/620/47 345/619/47 
f 345/619/47 352/639/6 351/638/6 
f 349/640/48 351/638/6 352/639/6 
f 352/639/6 353/641/48 349/640/48 
f 354/642/8 349/643/48 353/644/48 
f 353/644/48 355/645/8 354/642/8 
f 321/589/9 354/642/8 355/645/8 
f 355/645/8 322/590/9 321/589/9 
f 356/646/5 357/647/5 358/648/6 
f 358/648/6 359/649/6 356/646/5 
f 359/649/6 358/648/6 360/650/7 
f 360/650/7 361/651/7 359/649/6 
f 361/652/7 360/653/7 362/654/8 
f 362/654/8 363/655/8 361/652/7 
f 363/655/8 362/654/8 364/656/9 
f 364/656/9 365/657/9 363/655/8 
f 365/657/9 364/656/9 366/658/10 
f 366/658/10 367/659/10 365/657/9 
f 367/659/10 366/658/10 368/660/11 
f 368/660/11 369/661/11 367/659/10 
f 369/662/11 368/663/11 370/664/12 
f 370/664/12 371/665/12 369/662/11 
f 371/665/12 370/664/12 372/666/13 
f 372/666/13 373/667/13 371/665/12 
f 373/667/13 372/666/13 374/668/14 
f 374/668/14 375/669/14 373/667/13 
f 375/669/14 374/668/14 376/670/15 
f 376/670/15 377/671/15 375/669/14 
f 377/672/15 376/673/15 378/674/16 
f 378/674/16 379/675/16 377/672/15 
f 379/675/16 378/674/16 380/676/49 
f 380/676/49 381/677/49 379/675/16 
f 382/678/18 356/679/18 359/680/18 
f 382/678/18 359/680/18 361/681/18 
f 382/678/18 361/681/18 363/682/18 
f 382/678/18 363/682/18 365/683/18 
f 382/678/18 365/683/18 367/684/18 
f 382/678/18 367/684/18 369/685/18 
f 382/678/18 369/685/18 371/686/18 
f 382/678/18 371/686/18 373/687/18 
f 382/678/18 373/687/18 375/688/18 
f 382/678/18 375/688/18 377/689/18 
f 382/678/18 377/689/18 379/690/18 
f 382/678/18 379/690/18 381/691/18 
f 381/691/18 383/692/18 382/678/18 
f 383/692/18 384/693/18 382/678/18 
f 384/693/18 385/694/18 382/678/18 
f 385/694/18 356/679/18 382/678/18 
f 386/695/1 381/677/49 380/676/49 
f 380/676/49 387/696/1 386/695/1 
f 384/697/50 386/695/1 387/696/1 
f 387/696/1 388/698/50 384/697/50 
f 389/699/4 384/700/50 388/701/50 
f 388/701/50 390/702/4 389/699/4 
f 356/646/5 389/699/4 390/702/4 
f 390/702/4 357/647/5 356/646/5 
f 177/703/17 176/704/17 168/705/17 
f 168/705/17 167/706/17 177/703/17 
f 176/704/17 391/707/17 392/708/17 
f 392/708/17 168/705/17 176/704/17 
f 175/322/14 393/709/51 391/710/51 
f 391/710/51 176/323/14 175/322/14 
f 169/316/12 168/315/12 392/711/52 
f 392/711/52 394/712/52 169/316/12 
f 174/713/5 177/714/5 167/715/5 
f 167/715/5 166/716/5 174/713/5 
f 392/708/17 391/707/17 395/717/17 
f 395/717/17 396/718/17 392/708/17 
f 397/719/53 396/720/13 395/721/13 
f 395/721/13 398/722/53 397/719/53 
f 399/723/54 397/719/53 398/722/53 
f 398/722/53 400/724/54 399/723/54 
f 400/725/2 398/726/2 395/727/2 
f 395/727/2 391/728/2 400/725/2 
f 399/729/9 392/730/9 396/731/9 
f 396/731/9 397/732/9 399/729/9 
f 188/733/17 187/734/17 172/735/17 
f 172/735/17 171/736/17 188/733/17 
f 187/734/17 401/737/17 402/738/17 
f 402/738/17 172/735/17 187/734/17 
f 186/340/1 403/739/55 401/740/55 
f 401/740/55 187/341/1 186/340/1 
f 173/320/16 172/319/16 402/741/56 
f 402/741/56 404/742/56 173/320/16 
f 185/743/9 188/744/9 171/745/9 
f 171/745/9 170/746/9 185/743/9 
f 402/738/17 401/737/17 405/747/17 
f 405/747/17 406/748/17 402/738/17 
f 407/749/57 406/750/2 405/751/2 
f 405/751/2 408/752/57 407/749/57 
f 409/753/58 407/749/57 408/752/57 
f 408/752/57 410/754/58 409/753/58 
f 410/755/5 408/756/5 405/757/5 
f 405/757/5 401/758/5 410/755/5 
f 409/759/13 402/760/13 406/761/13 
f 406/761/13 407/762/13 409/759/13 
f 184/763/17 183/764/17 191/765/17 
f 191/765/17 190/766/17 184/763/17 
f 183/764/17 411/767/17 412/768/17 
f 412/768/17 191/765/17 183/764/17 
f 182/332/6 413/769/59 411/770/59 
f 411/770/59 183/333/6 182/332/6 
f 192/346/4 191/345/4 412/771/60 
f 412/771/60 414/772/60 192/346/4 
f 181/773/13 184/774/13 190/775/13 
f 190/775/13 189/776/13 181/773/13 
f 412/768/17 411/767/17 415/777/17 
f 415/777/17 416/778/17 412/768/17 
f 417/779/61 416/780/5 415/781/5 
f 415/781/5 418/782/61 417/779/61 
f 419/783/62 417/779/61 418/782/61 
f 418/782/61 420/784/62 419/783/62 
f 420/785/9 418/786/9 415/787/9 
f 415/787/9 411/788/9 420/785/9 
f 419/789/2 412/790/2 416/791/2 
f 416/791/2 417/792/2 419/789/2 
f 353/793/7 421/794/63 422/795/63 
f 422/795/63 230/796/7 353/793/7 
f 421/794/63 420/797/59 423/798/59 
f 423/798/59 422/795/63 421/794/63 
f 388/799/3 224/800/3 424/801/64 
f 424/801/64 425/802/64 388/799/3 
f 425/802/64 424/801/64 426/803/60 
f 426/803/60 419/804/60 425/802/64 
f 353/805/18 388/806/18 425/807/18 
f 425/807/18 421/808/18 353/805/18 
f 353/805/18 130/809/18 125/810/18 
f 125/810/18 388/806/18 353/805/18 
f 421/808/18 425/807/18 419/811/18 
f 419/811/18 420/812/18 421/808/18 
f 283/813/11 427/814/65 428/815/65 
f 428/815/65 212/816/11 283/813/11 
f 427/814/65 250/817/27 429/818/27 
f 429/818/27 428/815/65 427/814/65 
f 353/819/7 230/820/7 430/821/66 
f 430/821/66 431/822/66 353/819/7 
f 431/822/66 430/821/66 432/823/32 
f 432/823/32 249/824/32 431/822/66 
f 283/825/18 353/805/18 431/826/18 
f 431/826/18 427/827/18 283/825/18 
f 283/825/18 115/828/18 130/809/18 
f 130/809/18 353/805/18 283/825/18 
f 427/827/18 431/826/18 249/829/18 
f 249/829/18 250/830/18 427/827/18 
f 318/831/15 433/832/67 434/833/67 
f 434/833/67 218/834/15 318/831/15 
f 433/832/67 400/835/51 435/836/51 
f 435/836/51 434/833/67 433/832/67 
f 283/837/11 212/838/11 436/839/68 
f 436/839/68 437/840/68 283/837/11 
f 437/840/68 436/839/68 438/841/52 
f 438/841/52 399/842/52 437/840/68 
f 318/843/18 283/825/18 437/844/18 
f 437/844/18 433/845/18 318/843/18 
f 318/843/18 120/846/18 115/828/18 
f 115/828/18 283/825/18 318/843/18 
f 433/845/18 437/844/18 399/847/18 
f 399/847/18 400/848/18 433/845/18 
f 388/849/3 439/850/69 440/851/69 
f 440/851/69 224/852/3 388/849/3 
f 439/850/69 410/853/55 441/854/55 
f 441/854/55 440/851/69 439/850/69 
f 318/855/15 218/856/15 442/857/70 
f 442/857/70 443/858/70 318/855/15 
f 443/858/70 442/857/70 444/859/56 
f 444/859/56 409/860/56 443/858/70 
f 388/806/18 318/843/18 443/861/18 
f 443/861/18 439/862/18 388/806/18 
f 388/806/18 125/810/18 120/846/18 
f 120/846/18 318/843/18 388/806/18 
f 439/862/18 443/861/18 409/863/18 
f 409/863/18 410/864/18 439/862/18 
# 0 polygons - 704 triangles

