<svg viewBox="0 0 24 24" xmlns="http://www.w3.org/2000/svg">
    <path fill="currentColor" fill-rule="evenodd" d="M12 22c5.523 0 10-4.477 10-10S17.523 2 12 2 2 6.477 2 12s4.477 10 10 10M4.487 8.887c-.15.372.212.723.596.608a24.35 24.35 0 0 1 13.862 0c.385.115.748-.236.596-.608C18.328 5.903 15.415 3.8 12.014 3.8S5.701 5.903 4.487 8.887m-.479 4.618a.475.475 0 0 1 .478-.555h1.171a4.444 4.444 0 0 1 4.444 4.444v1.92c0 .324-.303.563-.61.463a8.18 8.18 0 0 1-5.483-6.272m15.507-.555c.3 0 .533.261.478.555a8.18 8.18 0 0 1-5.454 6.262c-.307.102-.612-.137-.612-.461v-1.912a4.444 4.444 0 0 1 4.445-4.444z" clip-rule="evenodd"/>
</svg>
